<svg width="48" height="48" viewBox="0 0 48 48" fill="none" xmlns="http://www.w3.org/2000/svg">
<path d="M35.1324 18.8055L39.2926 21.056L40.1636 21.5453C42.0191 22.5877 42.0191 25.2754 40.1636 26.3178L28.347 32.9568C25.6065 34.4965 22.2692 34.4965 19.5287 32.9568L7.71212 26.3178C5.85662 25.2754 5.85662 22.5877 7.71212 21.5453L8.58305 21.056L12.5127 18.8055M36.0372 28.8255L39.8187 30.729C41.769 31.7107 41.8316 34.4898 39.9276 35.5595L28.347 42.0658C25.6065 43.6055 22.2692 43.6055 19.5287 42.0658L8.11707 35.6544C6.18033 34.5663 6.28705 31.7258 8.29989 30.7881L12.5127 28.8255M28.347 23.2762L40.1636 16.6372C42.0191 15.5947 42.0191 12.9071 40.1636 11.8647L28.347 5.22573C25.6065 3.68603 22.2692 3.68603 19.5287 5.22573L7.71212 11.8647C5.85662 12.9071 5.85662 15.5947 7.71212 16.6372L19.5287 23.2761C22.2692 24.8158 25.6065 24.8159 28.347 23.2762Z" stroke="#2B3F6C" stroke-width="2.93622"/>
</svg>
