<svg width="48" height="48" viewBox="0 0 48 48" fill="none" xmlns="http://www.w3.org/2000/svg">
<path d="M13.2752 40.29C13.7048 40.5734 14.1462 40.8403 14.5986 41.0899C17.3986 42.6348 20.6173 43.514 24.0414 43.514C34.8523 43.514 43.6162 34.75 43.6162 23.9391C43.6162 13.1283 34.8523 4.36432 24.0414 4.36432C13.2305 4.36432 4.46655 13.1283 4.46655 23.9391C4.46655 27.3751 5.3518 30.6042 6.90666 33.411C7.15162 33.8532 7.41321 34.2849 7.69057 34.7053" stroke="#2B3F6C" stroke-width="2.93622" stroke-linecap="round"/>
<circle r="3.91497" transform="matrix(-1 0 0 1 24.0411 23.9393)" stroke="#2B3F6C" stroke-width="2.93622"/>
<path d="M18.8443 11.2605C16.3021 12.3025 14.1319 14.0848 12.6153 16.3758" stroke="#2B3F6C" stroke-width="2.93622" stroke-linecap="round"/>
</svg>
